<svg id="lightmd" xmlns="http://www.w3.org/2000/svg" width="33" height="33" viewBox="0 0 33 33">
  <path id="Path_1" data-name="Path 1" d="M25.5,18A7.5,7.5,0,1,1,18,10.5,7.5,7.5,0,0,1,25.5,18Z" transform="translate(-1.5 -1.5)" fill="none" stroke="#fff" stroke-linecap="round" stroke-linejoin="round" stroke-width="3"/>
  <path id="Path_2" data-name="Path 2" d="M18,1.5v3" transform="translate(-1.5)" fill="none" stroke="#fff" stroke-linecap="round" stroke-linejoin="round" stroke-width="3"/>
  <path id="Path_3" data-name="Path 3" d="M18,31.5v3" transform="translate(-1.5 -3)" fill="none" stroke="#fff" stroke-linecap="round" stroke-linejoin="round" stroke-width="3"/>
  <path id="Path_4" data-name="Path 4" d="M6.33,6.33,8.46,8.46" fill="none" stroke="#fff" stroke-linecap="round" stroke-linejoin="round" stroke-width="3"/>
  <path id="Path_5" data-name="Path 5" d="M27.54,27.54l2.13,2.13" transform="translate(-3 -3)" fill="none" stroke="#fff" stroke-linecap="round" stroke-linejoin="round" stroke-width="3"/>
  <path id="Path_6" data-name="Path 6" d="M1.5,18h3" transform="translate(0 -1.5)" fill="none" stroke="#fff" stroke-linecap="round" stroke-linejoin="round" stroke-width="3"/>
  <path id="Path_7" data-name="Path 7" d="M31.5,18h3" transform="translate(-3 -1.5)" fill="none" stroke="#fff" stroke-linecap="round" stroke-linejoin="round" stroke-width="3"/>
  <path id="Path_8" data-name="Path 8" d="M6.33,29.67l2.13-2.13" transform="translate(0 -3)" fill="none" stroke="#fff" stroke-linecap="round" stroke-linejoin="round" stroke-width="3"/>
  <path id="Path_9" data-name="Path 9" d="M27.54,8.46l2.13-2.13" transform="translate(-3)" fill="none" stroke="#fff" stroke-linecap="round" stroke-linejoin="round" stroke-width="3"/>
</svg>
