<?xml version="1.0" standalone="no"?>
<!DOCTYPE svg PUBLIC "-//W3C//DTD SVG 20010904//EN"
 "http://www.w3.org/TR/2001/REC-SVG-20010904/DTD/svg10.dtd">
<svg version="1.0" xmlns="http://www.w3.org/2000/svg"
 width="189.000000pt" height="85.000000pt" viewBox="0 0 189.000000 85.000000"
 preserveAspectRatio="xMidYMid meet">
<metadata>
Created by potrace 1.16, written by Peter Selinger 2001-2019
</metadata>
<g transform="translate(0.000000,85.000000) scale(0.100000,-0.100000)"
fill="#000000" stroke="none">
<path d="M327 519 c-15 -17 -40 -49 -54 -71 -21 -31 -31 -38 -47 -33 -65 19
-82 17 -112 -10 l-29 -26 28 17 c26 16 99 16 115 -1 9 -9 -100 -217 -120 -229
-12 -8 -21 -7 -30 2 -14 14 -17 76 -4 112 6 20 6 23 -4 13 -18 -16 -25 -105
-11 -132 29 -52 72 -15 132 114 54 118 51 115 102 102 23 -5 43 -11 45 -12 1
-1 -6 -31 -17 -66 -31 -104 -34 -124 -16 -139 8 -7 18 -10 22 -6 3 3 1 6 -5 6
-18 0 -14 58 10 138 19 65 24 74 49 79 28 5 74 41 65 50 -2 2 -14 -5 -25 -16
-12 -12 -30 -21 -40 -21 -18 0 -18 2 1 63 27 85 27 92 -2 94 -17 2 -34 -8 -53
-28z"/>
</g>
</svg>
